<svg xmlns="http://www.w3.org/2000/svg" xmlns:xlink="http://www.w3.org/1999/xlink" width="910.899" height="910.877" enable-background="new 0 0 1920 1080" viewBox="504.546 84.547 910.899 910.877" id="buy-one-get-one-free-shopping-offer">
  <path fill="#6b98df" d="M1374.04,540.02c0,228.63-185.37,414-414.04,414c-65.57,0-127.54-15.24-182.64-42.4     c-2.58-1.25-5.12-2.54-7.66-3.87c-11.02-5.7-21.73-11.88-32.12-18.56c-8.6-5.43-17-11.21-25.13-17.31     c-38.96-29.11-72.64-64.9-99.29-105.7c-6.02-9.22-11.68-18.68-16.96-28.37c-32.04-58.77-50.25-126.13-50.25-197.8     c0-220.07,171.66-400.01,388.41-413.22c8.48-0.55,17.04-0.82,25.63-0.82c149.5,0,280.48,79.21,353.24,197.96     c0.23,0.31,0.39,0.63,0.59,0.94c0.2,0.31,0.35,0.59,0.51,0.86C1352.24,388.25,1374.04,461.6,1374.04,540.02z"></path>
  <defs>
    <path id="a" d="M1374.04,540.02c0,228.63-185.37,414-414.04,414c-65.57,0-127.54-15.24-182.64-42.4        c-2.58-1.25-5.12-2.54-7.66-3.87c-11.02-5.7-21.73-11.88-32.12-18.56c-8.6-5.43-17-11.21-25.13-17.31        c-38.96-29.11-72.64-64.9-99.29-105.7c-6.02-9.22-11.68-18.68-16.96-28.37c-32.04-58.77-50.25-126.13-50.25-197.8        c0-220.07,171.66-400.01,388.41-413.22c8.48-0.55,17.04-0.82,25.63-0.82c149.5,0,280.48,79.21,353.24,197.96        c0.23,0.31,0.39,0.63,0.59,0.94c0.2,0.31,0.35,0.59,0.51,0.86C1352.24,388.25,1374.04,461.6,1374.04,540.02z"></path>
  </defs>
  <clipPath id="b">
    <use xlink:href="#a" overflow="visible"></use>
  </clipPath>
  <g clip-path="url(#b)">
    <polygon fill="#969617" points="735.04 915.99 738.79 873.14 767.87 497.7 768.3 491.88 769.08 481.76 769.08 481.72 769.55 475.9 769.82 472.26 821.71 462.18 826.01 461.36 866.3 453.51 866.38 453.51 921.86 442.72 925.81 441.98 969.5 433.46 973.56 432.68 1043.19 419.16 1203.99 818.78 1103.13 839.49 1051.98 849.96 955.74 869.66 901.27 880.83 901.23 880.83 735.04 915.98"></polygon>
    <path d="M815.75,503.71c-0.11,0-0.21-0.01-0.32-0.03c-1.06-0.17-1.79-1.18-1.61-2.24c1.05-6.37,26.18-156.13,71.37-167.63          c45.57-11.65,104,133.19,106.47,139.36c0.4,1-0.09,2.14-1.09,2.54c-1,0.4-2.14-0.09-2.54-1.09          c-0.59-1.48-59.52-147.75-101.88-137.02c-42.73,10.88-68.23,162.95-68.48,164.48C817.52,503.04,816.69,503.71,815.75,503.71          z"></path>
    <path d="M830.47 499.03c-1.33-5.2-5.47-8.99-10.39-10.08-1.25-.35-2.58-.47-3.91-.35-.9.04-1.8.16-2.66.39-7.42 1.88-11.92 9.5-10.04 16.92 1.6 6.29 7.27 10.51 13.48 10.51 1.13 0 2.31-.16 3.44-.43 3.63-.94 6.64-3.2 8.56-6.41C830.82 506.38 831.36 502.66 830.47 499.03zM825.58 507.59c-1.37 2.31-3.56 3.95-6.13 4.61-2.62.66-5.31.27-7.62-1.09-2.27-1.37-3.91-3.56-4.57-6.13-1.37-5.35 1.88-10.82 7.23-12.19.31-.08.63-.16.9-.2h.04c.55-.08 1.02-.12 1.52-.12.82 0 1.6.12 2.38.35 3.48.78 6.37 3.48 7.35 7.19C827.34 502.59 826.95 505.28 825.58 507.59zM1001.89 468.79c-.31-1.25-.82-2.42-1.45-3.52-.23-.47-.55-.86-.86-1.29v-.04c-.82-1.13-1.8-2.11-2.93-2.93-.39-.27-.78-.55-1.17-.78-3.01-1.8-6.53-2.38-9.96-1.6h-.04c-.16 0-.35.04-.51.08-1.13.27-2.19.7-3.16 1.25-.12.04-.23.12-.35.2-2.07 1.17-3.79 2.85-5.04 4.96-1.91 3.17-2.42 6.92-1.52 10.51.94 3.63 3.2 6.64 6.37 8.56 2.19 1.29 4.65 1.95 7.11 1.95 1.13 0 2.31-.16 3.44-.43 2.19-.55 4.14-1.6 5.78-3.05 1.09-.94 1.99-2.07 2.77-3.32.66-1.13 1.17-2.34 1.48-3.59.31-1.17.47-2.34.47-3.52S1002.16 469.92 1001.89 468.79zM997 477.3c-1.37 2.31-3.56 3.95-6.13 4.61-2.62.66-5.31.27-7.62-1.09-2.27-1.37-3.91-3.56-4.57-6.13-.66-2.62-.27-5.28 1.09-7.58.9-1.48 2.11-2.74 3.59-3.56.78-.47 1.64-.82 2.54-1.06.39-.08.78-.16 1.17-.23.43-.04.9-.08 1.33-.08 1.76 0 3.52.47 5.08 1.41 2.31 1.37 3.95 3.56 4.61 6.13C998.76 472.34 998.37 475.04 997 477.3z"></path>
    <g>
      <polygon points="1203.99 818.79 1103.13 839.48 1043.17 419.14"></polygon>
    </g>
  </g>
  <g clip-path="url(#b)">
    <polyline fill="#ffbf61" points="580.1 863.16 721.88 445.22 774.67 448.27 779.04 448.51 824.33 451.12 828.43 451.36 866.3 453.51 924.99 456.91 929.13 457.14 981.45 460.15 981.92 460.19 986.3 460.42 996.65 461.01 999.9 461.2 1000.44 465.27 1001.85 475.74 1051.98 849.96 1057.1 888.18 954.26 883.33 580.11 863.14"></polyline>
    <path d="M934.71,503.05c-0.97,0-1.81-0.72-1.93-1.7c-0.21-1.58-21.24-157.93-64.91-157.93          c-44.1,0-106.33,141.07-106.95,142.49c-0.43,0.99-1.59,1.44-2.57,1.01c-0.99-0.43-1.44-1.58-1.01-2.57          c2.59-5.91,63.9-144.84,110.53-144.84c47.07,0,67.92,154.74,68.78,161.33c0.14,1.07-0.61,2.05-1.68,2.19          C934.88,503.04,934.8,503.05,934.71,503.05z"></path>
    <path d="M769.55 475.9c-.9-.86-1.95-1.56-3.05-2.11-1.17-.63-2.42-1.05-3.71-1.33-.86-.16-1.76-.23-2.66-.23-7.7 0-13.91 6.21-13.91 13.91 0 7.66 6.21 13.91 13.91 13.91 2.85 0 5.51-.86 7.74-2.34 3.71-2.5 6.17-6.76 6.17-11.57C774.04 482.07 772.28 478.44 769.55 475.9zM768.3 491.88c-1.8 2.58-4.81 4.26-8.17 4.26-5.51 0-10-4.49-10-10 0-5.51 4.49-10 10-10 .31 0 .63 0 .94.04 1.33.12 2.62.55 3.79 1.13 1.84 1.02 3.32 2.54 4.22 4.42v.04c.66 1.33 1.05 2.81 1.05 4.38C770.13 488.24 769.47 490.24 768.3 491.88zM934.29 485.2c-.2-.04-.39-.04-.59-.04-1.17 0-2.27.16-3.36.43-6.06 1.48-10.55 6.99-10.55 13.52 0 7.66 6.25 13.91 13.91 13.91 7.7 0 13.95-6.25 13.95-13.91C947.65 491.61 941.71 485.47 934.29 485.2zM933.7 509.11c-5.51 0-10-4.49-10-10 0-4.61 3.09-8.48 7.31-9.65.86-.27 1.76-.39 2.7-.39.43 0 .82.04 1.21.08 5 .59 8.83 4.85 8.83 9.96C943.74 504.62 939.25 509.11 933.7 509.11z"></path>
    <g>
      <polygon points="1057.11 888.18 954.27 883.33 999.91 461.2"></polygon>
    </g>
  </g>
  <path fill="#e29aad" d="M1313.83,324.87c-19.93,3.09-50.17,6.96-84.79,8.64c-2.81,0.12-5.67,0.23-8.56,0.23        c-34.23,0.35-73.38-6.45-101.09-12.43c-0.23-0.04-0.51-0.12-0.74-0.16c-21.06-4.57-35.28-8.64-35.28-8.64l-86.79,19.69        c-0.08,0-0.12,0-0.16,0.04l-9.81,2.23c0,0,0.08,0.12,0.2,0.35c0.23,0.35,0.59,0.98,1.02,1.8c3.48,6.49,12.47,26.06,1.76,36.77        c-3.36,3.36-11.41,4.85-21.45,5.2c-0.47,0-0.98,0.04-1.45,0c-7.31,0.23-15.63-0.16-23.91-0.86c-1.64-0.12-3.32-0.27-4.96-0.43        c-5.59-0.55-11.1-1.17-16.22-1.84c-0.74-0.08-1.48-0.2-2.23-0.27c-6.33-0.86-11.96-1.72-16.18-2.38        c-1.8-0.27-3.32-0.55-4.57-0.74c-0.31-0.04-0.59-0.12-0.86-0.16h-0.04c-1.88-0.31-2.89-0.51-2.89-0.51s0,0-22.98,5.98        c-3.2,0.82-6.21,0.9-9.07,0.43c-0.04,0.04-0.08,0-0.08,0c-3.09-0.55-5.98-1.76-8.6-3.4c-1.13-0.66-2.19-1.45-3.2-2.27        c-4.49-3.56-8.09-8.17-10.75-12.23l-0.82-1.29c-0.74-1.21-1.41-2.34-1.95-3.36c-1.6-2.85-2.42-4.81-2.42-4.81        s-0.35,0.12-0.94,0.31c-4.26,1.45-21.88,6.8-28.02,0.66c-1.02-1.06-0.74-5.2,0.59-11.57c0.12-0.66,0.27-1.33,0.43-2.03        c2.58-11.76,8.05-29.93,14.58-49.86c0.2-0.59,0.39-1.17,0.55-1.8h0.04c14.61-44.51,34.15-97.06,38.72-107.34        c4.06-9.14,38.72-31.49,73.46-52.05c8.48-0.55,17.04-0.82,25.63-0.82c149.5,0,280.48,79.21,353.24,197.96        C1313.47,324.25,1313.63,324.56,1313.83,324.87z"></path>
  <path d="M1313.83 324.87c-.2-.31-.35-.63-.59-.94-23.05 3.63-58.57 8.4-92.77 9.81-1.05.04-2.07.08-3.13.12-32.63 1.13-70.77-6.02-97.96-12.54-.23-.04-.51-.12-.74-.16-20.55-4.92-34.66-9.42-34.97-9.53-.16-.08-.35-.08-.51-.04-.59.12-53.92 12.11-86.59 20.63-.08 0-.12 0-.16.04-2.15.55-4.18 1.09-6.1 1.6-1.13.31-2.31.63-3.52.98-17.35 5.12-41.11 14.61-59.39 22.31-1.25.51-2.46 1.02-3.63 1.52-11.06 4.69-19.62 8.52-22.74 9.92-.78.31-1.21.55-1.25.55-.04 0-.86.31-2.31.78-5.78 1.95-21.06 6.8-32.04 7.81-.9.08-1.8.12-2.66.08-.04.04-.08 0-.08 0-3.2-.08-6.21-.9-9.07-2.46-1.09-.59-2.19-1.33-3.24-2.19-3.79-2.93-7.23-7.39-10.24-13.25-.27-.47-.51-.94-.7-1.41-.63-1.17-1.17-2.34-1.68-3.63-.66-1.52-1.29-3.09-1.91-4.77-4.88-13.48 3.32-27.51 11.06-36.89 7.46-8.99 16.76-15.51 31.07-21.76 4.49-1.95 9.03-3.79 13.6-5.55.2-.04.35-.08.47-.2 8.75-3.36 17.62-6.49 26.3-9.53 14.58-5.16 29.7-10.47 44.04-16.96 10.98-4.96 31.1-14.97 43.41-26.61.47-.43.9-.86 1.33-1.33 6.29-6.29 10.16-13.01 9.03-19.65-2.62-15.9-18.56-20.12-27.55-20.12-7.42 0-65.18 38.37-71.7 42.75-.16.08-.27.2-.35.35l-25.75 49.51c-4.57 1.76-9.1 3.63-13.6 5.59-14.61 6.37-24.11 13.01-31.77 22.31-11.61 13.99-15.55 27.39-11.41 38.76.7 1.95 1.45 3.79 2.27 5.55.51 1.25 1.09 2.46 1.68 3.63 3.36 6.72 7.19 11.76 11.57 15.04 1.05.82 2.11 1.52 3.24 2.15 3.24 1.76 6.76 2.66 10.51 2.66.78 0 1.56-.04 2.34-.12 10.9-1.05 25.91-5.74 32.08-7.78h.04c.23-.08.47-.16.66-.23 1.29-.43 2.07-.7 2.11-.74.04-.04.55-.23 1.41-.63 3.28-1.48 12-5.35 23.17-10.08 1.17-.51 2.38-1.02 3.63-1.52 18.37-7.74 41.97-17.11 59.08-22.08 1.02-.31 2.03-.59 3.01-.86 30.52-8.28 88.15-21.26 92.49-22.23 4.92 1.56 77.68 24.19 134.11 22.27 35.64-1.21 73.15-6.33 96.91-10.08C1314.18 325.46 1314.02 325.18 1313.83 324.87zM918.19 235.74c19.11-12.78 46.15-30.09 60.72-37.98.63-.39 1.21-.7 1.8-.98 3.95-2.11 6.76-3.32 7.89-3.32.9 0 22.59.2 25.63 18.48.98 5.82-2.31 11.76-7.81 17.43-.51.51-1.02 1.02-1.52 1.48-11.96 11.49-32.32 21.61-43.3 26.57-8.32 3.79-16.92 7.15-25.52 10.32-.98.35-1.91.7-2.89 1.05-5.2 1.91-10.39 3.75-15.51 5.55-7.93 2.77-16.06 5.63-24.11 8.71L918.19 235.74zM806 339.95c-.5 0-.92-.38-.97-.88-.05-.54.34-1.02.88-1.07 6.14-.6 12.08-4 16.31-9.34 3.77-4.76 6.18-10.99 6.97-18 .37-3.38.32-6.35-.17-9.08-.93-5.24-3.61-10.1-7.52-13.7-.4-.36-.42-.98-.06-1.38.37-.4.99-.42 1.38-.06 4.23 3.88 7.11 9.14 8.12 14.79.52 2.92.58 6.08.19 9.64-.82 7.38-3.37 13.94-7.37 18.99-4.56 5.75-10.99 9.43-17.65 10.08C806.06 339.95 806.03 339.95 806 339.95z"></path>
  <path d="M902.09 329.29c-1.52-6.99-5.08-11.72-10.63-13.99-18.05-7.46-50.68 13.48-52.05 14.38-.43.27-.59.82-.35 1.29l8.44 16.06 1.76 3.4 6.49 12.43 2.15 4.03 2.77 5.31c.2.31.51.51.9.51h.16c.86-.16 17.62-3.24 29.54-13.17.94-.78 1.88-1.6 2.74-2.5 1.52-1.48 2.93-3.16 4.14-4.96 2.42-3.63 3.91-7.54 4.45-11.76.23-1.33.31-2.66.27-4.03C902.87 334.01 902.64 331.67 902.09 329.29zM896.5 350.97c-1.09 1.6-2.31 3.09-3.67 4.45-.86.9-1.76 1.72-2.74 2.5-10.28 8.56-24.7 12-28.02 12.7l-3.05-5.82v-.04l-2.11-3.99-6.02-11.45-1.76-3.4-7.93-15.08c5.04-3.13 33.88-20.24 49.51-13.75 4.92 2.03 8.09 6.25 9.46 12.62.43 1.95.66 3.83.7 5.67.08 1.37.04 2.74-.16 4.02C900.29 343.55 898.89 347.42 896.5 350.97zM934.05 270.28c-.17 0-.34-.04-.49-.13-.47-.27-.63-.87-.36-1.34.6-1.04 14.78-25.48 19.21-28.88 4.34-3.34 41.77-23.51 43.36-24.36.47-.25 1.06-.08 1.32.4.26.47.08 1.07-.4 1.32-.39.21-38.88 20.95-43.1 24.19-3.42 2.63-14.66 21.33-18.71 28.31C934.72 270.11 934.39 270.28 934.05 270.28z"></path>
  <path d="M1006.21 232.7c-.41 0-.8-.26-.93-.68-4.85-15.19-26.43-34.29-26.65-34.48-.4-.36-.45-.97-.09-1.38.35-.41.97-.44 1.38-.09.9.8 22.21 19.65 27.22 35.36.16.52-.12 1.06-.63 1.23C1006.41 232.69 1006.31 232.7 1006.21 232.7zM967.39 378.92c-.41 0-.79-.26-.93-.67-2.08-6.26-8.12-11.29-15.38-12.81-6.33-1.31-13.67-.13-20.67 3.34-4.62 2.29-7.85 4.95-9.86 8.12-.29.46-.9.59-1.35.3-.45-.29-.59-.89-.3-1.35 2.21-3.48 5.69-6.37 10.64-8.82 7.4-3.66 15.19-4.9 21.93-3.5 7.93 1.65 14.54 7.19 16.84 14.1.17.51-.11 1.07-.62 1.24C967.59 378.91 967.49 378.92 967.39 378.92z"></path>
  <g>
    <circle cx="718.15" cy="264.19" r="80.81" fill="#ffae01" transform="rotate(-58.702 718.148 264.185)"></circle>
    <circle cx="730.93" cy="268.43" r="80.81" fill="#ffae01" transform="rotate(-55.08 730.968 268.448)"></circle>
    <circle cx="718.15" cy="264.19" r="80.81" fill="none" stroke="#000" stroke-miterlimit="10" stroke-width="1.954" transform="rotate(-58.702 718.148 264.185)"></circle>
    <circle cx="718.15" cy="264.19" r="73.49" fill="none" stroke="#000" stroke-miterlimit="10" stroke-width="1.777" transform="rotate(-19.317 718.223 264.21)"></circle>
    <path d="M708.54,285.75c-3.11-1.03-5.74-2.38-7.87-4.04c-2.14-1.67-3.98-3.86-5.52-6.58c-0.36-0.51-0.58-1.05-0.65-1.62       c-0.07-0.57-0.02-1.12,0.15-1.64c0.27-0.82,0.82-1.45,1.64-1.9c0.82-0.45,1.69-0.53,2.59-0.23c0.69,0.23,1.26,0.69,1.71,1.36       c1.14,2.06,2.48,3.77,4.01,5.14c1.54,1.37,3.51,2.46,5.93,3.26c1.73,0.57,3.41,0.81,5.04,0.73c1.64-0.08,3.04-0.46,4.22-1.12       c1.18-0.67,1.98-1.63,2.4-2.88c0.52-1.56,0.5-3-0.05-4.3c-0.55-1.31-1.54-2.58-2.99-3.8c-1.44-1.22-3.25-2.45-5.43-3.7       c-2.03-1.11-3.78-2.29-5.26-3.54c-1.48-1.26-2.65-2.62-3.51-4.08c-0.86-1.46-1.37-3.03-1.53-4.72       c-0.16-1.68,0.08-3.5,0.72-5.44c0.87-2.63,2.32-4.67,4.33-6.12c2.01-1.44,4.38-2.29,7.1-2.54c2.72-0.25,5.57,0.12,8.56,1.11       c2.72,0.9,5.13,2.17,7.23,3.8c2.1,1.63,3.65,3.4,4.64,5.32c0.74,1.25,0.93,2.4,0.59,3.43c-0.26,0.78-0.81,1.4-1.66,1.86       c-0.85,0.46-1.69,0.56-2.51,0.29c-0.6-0.2-1.07-0.55-1.39-1.04c-0.45-0.96-1.15-1.92-2.13-2.89c-0.97-0.97-2.06-1.87-3.25-2.7       c-1.19-0.83-2.39-1.44-3.6-1.84c-1.95-0.65-3.7-0.93-5.26-0.85c-1.56,0.08-2.87,0.47-3.91,1.15c-1.05,0.69-1.77,1.66-2.19,2.91       c-0.48,1.47-0.47,2.82,0.06,4.05c0.53,1.23,1.45,2.39,2.77,3.47c1.32,1.09,2.87,2.19,4.66,3.31c2.21,1.31,4.14,2.59,5.81,3.87       c1.67,1.27,2.98,2.63,3.94,4.07c0.96,1.45,1.53,3.04,1.72,4.78c0.19,1.74-0.08,3.74-0.83,5.98c-0.86,2.59-2.35,4.62-4.46,6.08       c-2.12,1.46-4.55,2.33-7.31,2.61C714.33,287.07,711.48,286.72,708.54,285.75z M710.73,291.73c-0.3,0.9-0.87,1.58-1.72,2.02       c-0.84,0.44-1.74,0.5-2.68,0.18c-0.91-0.3-1.56-0.87-1.95-1.72c-0.4-0.85-0.44-1.73-0.14-2.64l18-54.33       c0.32-0.94,0.89-1.63,1.73-2.05c0.83-0.42,1.72-0.47,2.68-0.16c0.91,0.3,1.56,0.87,1.96,1.69c0.4,0.83,0.44,1.72,0.13,2.67       L710.73,291.73z"></path>
  </g>
  <g>
    <circle cx="1214.1" cy="719.83" r="80.81" fill="#ffae01" transform="rotate(-2.625 1214.374 719.984)"></circle>
    <circle cx="1227.33" cy="717.35" r="80.81" fill="#ffae01" transform="rotate(-71.88 1227.348 717.356)"></circle>
    <circle cx="1214.1" cy="719.83" r="80.81" fill="none" stroke="#000" stroke-miterlimit="10" stroke-width="1.954" transform="rotate(-2.625 1214.374 719.984)"></circle>
    <path fill="none" stroke="#000" stroke-miterlimit="10" stroke-width="1.777" d="M1286.33,706.27c7.49,39.89-18.78,78.3-58.68,85.79c-39.89,7.49-78.3-18.78-85.79-58.68      c-7.49-39.89,18.78-78.3,58.68-85.79C1240.43,640.11,1278.84,666.38,1286.33,706.27z"></path>
    <path d="M1216.13,743.34c-3.22,0.61-6.17,0.7-8.84,0.27c-2.68-0.43-5.35-1.45-8.02-3.08c-0.56-0.27-1.01-0.64-1.35-1.1       c-0.34-0.47-0.56-0.97-0.67-1.51c-0.16-0.85,0.01-1.67,0.51-2.46c0.5-0.79,1.22-1.28,2.16-1.45c0.72-0.13,1.44-0.01,2.15,0.36       c1.99,1.25,4,2.1,6,2.56c2.01,0.45,4.26,0.45,6.77-0.02c1.79-0.34,3.38-0.94,4.77-1.8c1.39-0.87,2.44-1.87,3.15-3.02       c0.71-1.16,0.94-2.38,0.7-3.68c-0.3-1.62-1.02-2.86-2.13-3.73c-1.12-0.88-2.6-1.51-4.45-1.88c-1.85-0.37-4.03-0.57-6.54-0.61       c-2.31,0.01-4.42-0.17-6.32-0.55c-1.91-0.38-3.59-1.01-5.05-1.87c-1.46-0.86-2.66-1.99-3.62-3.38c-0.96-1.39-1.63-3.1-2-5.11       c-0.51-2.73-0.24-5.21,0.83-7.45c1.06-2.24,2.72-4.13,4.98-5.66c2.26-1.53,4.93-2.59,8.02-3.17c2.82-0.53,5.54-0.59,8.16-0.18       c2.63,0.41,4.84,1.21,6.64,2.4c1.25,0.74,1.98,1.64,2.18,2.72c0.15,0.81-0.04,1.62-0.55,2.43c-0.52,0.82-1.2,1.31-2.05,1.47       c-0.62,0.12-1.2,0.04-1.72-0.24c-0.86-0.62-1.94-1.12-3.26-1.5c-1.32-0.38-2.71-0.64-4.15-0.79c-1.44-0.15-2.79-0.1-4.04,0.13       c-2.02,0.38-3.69,0.98-5.01,1.81c-1.33,0.83-2.28,1.8-2.86,2.9c-0.58,1.11-0.75,2.31-0.51,3.6c0.29,1.52,0.96,2.69,2.02,3.51       c1.06,0.82,2.43,1.38,4.11,1.69c1.68,0.32,3.57,0.53,5.68,0.64c2.56,0.07,4.88,0.26,6.95,0.57c2.07,0.3,3.88,0.86,5.42,1.66       c1.54,0.8,2.81,1.92,3.82,3.35c1.01,1.43,1.74,3.31,2.17,5.64c0.51,2.68,0.18,5.18-0.96,7.48c-1.14,2.3-2.85,4.24-5.13,5.83       C1221.83,741.7,1219.17,742.77,1216.13,743.34z M1220.94,747.51c0.18,0.94,0,1.81-0.52,2.6c-0.52,0.79-1.28,1.28-2.26,1.46       c-0.94,0.18-1.79-0.01-2.54-0.56c-0.76-0.55-1.22-1.3-1.4-2.24l-10.56-56.26c-0.18-0.98-0.01-1.86,0.52-2.63       c0.52-0.77,1.28-1.25,2.26-1.43c0.94-0.18,1.78,0,2.53,0.53c0.75,0.53,1.22,1.29,1.4,2.27L1220.94,747.51z"></path>
  </g>
  <g>
    <path fill="#ada62a" d="M1302.48,464.35h-178.13c-24.65,0-44.81-20.17-44.81-44.81v-0.66c0-24.65,20.17-44.81,44.81-44.81h178.13      c24.65,0,44.81,20.16,44.81,44.81v0.66C1347.29,444.18,1327.13,464.35,1302.48,464.35z"></path>
    <path fill="#ed9898" d="M1302.48,586.26h-178.13c-24.65,0-44.81-20.16-44.81-44.81v-0.66c0-24.65,20.17-44.81,44.81-44.81h178.13      c24.65,0,44.81,20.16,44.81,44.81v0.66C1347.29,566.1,1327.13,586.26,1302.48,586.26z"></path>
    <text transform="translate(1113.756 416.027)"><tspan x="0" y="0" fill="#fff" font-family="OpenSans-Bold" font-size="34">BUY 1 GET 1</tspan><tspan x="59.65" y="35" fill="#fff" font-family="OpenSans-Bold" font-size="34">FREE</tspan></text>
    <text fill="#fff" font-family="OpenSans-Bold" font-size="34" transform="translate(1117.555 552.333)">SHOP NOW</text>
  </g>
  <g>
    <path fill="#fff" d="M617.39 463.4c.36-2.14.31-4.39.54-6.51.34-3.15.56-6.32.84-9.48.36-4.03.71-8.07 1.07-12.1.1-1.15 1.74-1.26 1.99-.13l6.13 26.98c.87 3.84 4.16 6.65 8.09 6.92l27.72 1.89c1.14.08 1.3 1.68.2 1.98l-26.89 7.33c-3.52.96-6.11 3.98-6.52 7.61l-3.4 30.17c-.13 1.15-1.78 1.22-2 .08l-5.29-27.28c-.76-3.89-3.99-6.82-7.94-7.18l-30.71-3.52c-.66-.08-.72-1-.08-1.17 4.8-1.26 9.61-2.51 14.41-3.77 3.35-.88 6.32-1.2 10.32-2.43 3.84-1.18 7.86-1.76 10.16-5.52C616.76 466.05 617.16 464.75 617.39 463.4zM1047 337.98c.29-1.69.25-3.47.43-5.15.26-2.49.44-5 .66-7.5.28-3.19.56-6.38.84-9.57.08-.91 1.37-1 1.58-.11l4.85 21.34c.69 3.04 3.29 5.26 6.4 5.47l21.92 1.49c.9.06 1.03 1.33.16 1.57l-21.26 5.8c-2.79.76-4.83 3.14-5.15 6.01l-2.69 23.85c-.1.91-1.4.96-1.58.06l-4.19-21.57c-.6-3.08-3.15-5.39-6.28-5.68l-24.28-2.78c-.52-.06-.57-.79-.07-.93 3.8-.99 7.6-1.99 11.4-2.98 2.65-.69 4.99-.95 8.16-1.92 3.04-.94 6.21-1.4 8.03-4.36C1046.51 340.08 1046.82 339.05 1047 337.98zM1309.57 619.44c.29-1.69.25-3.47.43-5.15.27-2.49.44-5 .66-7.5.28-3.19.56-6.38.84-9.57.08-.91 1.37-1 1.58-.11l4.85 21.34c.69 3.04 3.29 5.26 6.4 5.47l21.92 1.49c.9.06 1.03 1.33.16 1.57l-21.26 5.8c-2.79.76-4.83 3.14-5.15 6.01l-2.69 23.85c-.1.91-1.4.96-1.58.06l-4.19-21.57c-.6-3.08-3.15-5.39-6.28-5.68l-24.28-2.78c-.52-.06-.57-.79-.07-.93 3.8-.99 7.6-1.99 11.4-2.98 2.65-.69 4.99-.95 8.16-1.92 3.04-.94 6.21-1.4 8.03-4.36C1309.08 621.54 1309.39 620.51 1309.57 619.44zM1025.83 877.24c.29-1.69.25-3.47.43-5.15.27-2.49.44-5 .66-7.5.28-3.19.56-6.38.84-9.57.08-.91 1.37-1 1.58-.11l4.85 21.34c.69 3.04 3.29 5.26 6.4 5.47l21.92 1.49c.9.06 1.03 1.33.16 1.57l-21.26 5.8c-2.79.76-4.83 3.14-5.15 6.01l-2.69 23.85c-.1.91-1.4.96-1.58.06l-4.19-21.57c-.6-3.08-3.15-5.39-6.28-5.68l-24.28-2.78c-.52-.06-.57-.79-.07-.93 3.8-.99 7.6-1.99 11.4-2.98 2.65-.69 4.99-.95 8.16-1.92 3.04-.94 6.21-1.4 8.03-4.36C1025.34 879.34 1025.65 878.31 1025.83 877.24z"></path>
    <circle cx="732.02" cy="391.85" r="11.47" fill="#fff"></circle>
    <circle cx="865.21" cy="889.19" r="11.47" fill="#fff"></circle>
    <circle cx="1137.58" cy="835.31" r="11.47" fill="#fff"></circle>
    <path fill="#fff" d="M1173.99 622.81c0 6.34-5.14 11.47-11.47 11.47-6.34 0-11.47-5.14-11.47-11.47 0-6.34 5.14-11.47 11.47-11.47C1168.85 611.34 1173.99 616.48 1173.99 622.81zM1286.73 350.45c0 6.34-5.14 11.47-11.47 11.47-6.34 0-11.47-5.14-11.47-11.47s5.14-11.47 11.47-11.47C1281.59 338.98 1286.73 344.11 1286.73 350.45z"></path>
    <circle cx="616.29" cy="615.33" r="11.47" fill="#fff"></circle>
  </g>
</svg>
